HIERARCHY
ROOT pelvis
{
  OFFSET 0 100 0
  CHANNELS 6 Xposition Yposition Zposition Zrotation Xrotation Yrotation
  JOINT pelvis_right_femur
  {
    OFFSET -10.78128 -3.44521 -0.5502486
    CHANNELS 3 Zrotation Xrotation Yrotation
    JOINT right_femur_tibia
    {
      OFFSET -0.8047443 -44.0398 -0.1307829
      CHANNELS 3 Zrotation Xrotation Yrotation
      JOINT right_tibia_foot
      {
        OFFSET 3.006224 -47.83518 -5
        CHANNELS 3 Zrotation Xrotation Yrotation
        End Site
        {
          OFFSET 0 -5 15
        }
      }
    }
  }
  JOINT pelvis_left_femur
  {
    OFFSET 10.78128 -3.44521 -0.5502486
    CHANNELS 3 Zrotation Xrotation Yrotation
    JOINT left_femur_tibia
    {
      OFFSET 0.8047443 -44.0398 -0.1307829
      CHANNELS 3 Zrotation Xrotation Yrotation
      JOINT left_tibia_foot
      {
        OFFSET -4.370144 -48.10324 -4.275266
        CHANNELS 3 Zrotation Xrotation Yrotation
        End Site
        {
          OFFSET 0 -5 15
        }
      }
    }
  }
  JOINT pelvis_spine1
  {
    OFFSET 0 6.468898 -3.129235
    CHANNELS 3 Zrotation Xrotation Yrotation
    JOINT spine1
    {
      OFFSET 0 23.15396 4.99043
      CHANNELS 3 Zrotation Xrotation Yrotation
      JOINT spine2
      {
        OFFSET 0 20.79997 -5.064912
        CHANNELS 3 Zrotation Xrotation Yrotation
        JOINT neck
        {
          OFFSET 0 14.38658 9.616178
          CHANNELS 3 Zrotation Xrotation Yrotation
          End Site
          {
            OFFSET 0 20 0
          }
        }
      }
      JOINT right_manubrium
      {
        OFFSET -5.722621 16.35077 3.967754
        CHANNELS 3 Zrotation Xrotation Yrotation
        JOINT right_clavicle
        {
          OFFSET -13.16364 1.694482 -4.693211
          CHANNELS 3 Zrotation Xrotation Yrotation
          JOINT right_humerus
          {
            OFFSET -28.5034 -0.3100689 -2.792744
            CHANNELS 3 Zrotation Xrotation Yrotation
            JOINT right_radius
            {
              OFFSET -25.15693 0.02248979 -1.271978
              CHANNELS 3 Zrotation Xrotation Yrotation
              End Site
              {
                OFFSET -15 0 0
              }
            }
          }
        }
      }
      JOINT left_manubrium
      {
        OFFSET 5.722621 16.35077 3.967754
        CHANNELS 3 Zrotation Xrotation Yrotation
        JOINT left_clavicle
        {
          OFFSET 13.16364 1.694482 -4.693211
          CHANNELS 3 Zrotation Xrotation Yrotation
          JOINT left_humerus
          {
            OFFSET 29.39168 -1.063119 -2.237045
            CHANNELS 3 Zrotation Xrotation Yrotation
            JOINT left_radius
            {
              OFFSET 24.59957 -0.9528479 0.9047498
              CHANNELS 3 Zrotation Xrotation Yrotation
              End Site
              {
                OFFSET 15 -0 -0
              }
            }
          }
        }
      }
    }
  }
}
MOTION
Frames: 23
Frame Time: 0.0416666666667
184.2361 107.3142 3150.699 0.3665952 -7.444039 -3.927737 4.898943 4.319243 5.286206 -0 12.03513 -0 -2.274415 -8.876191 -4.65234 -1.159757 -13.45388 -4.998468 -0 52.47568 -0 -7.368204 -6.304091 17.90388 1.606764 -3.153929 8.267729 -0.7979045 15.40385 -4.067152 1.978016 18.6208 1.808447 -1.338902 -21.71746 5.917852 -4.992342 -33.08496 10.48266 89.86013 15.46555 -5.782954 -0 0 30.23376 -24.01972 15.91242 18.76932 1.130773 -19.50917 -6.471467 -96.00018 14.3432 40.4712 0 0 -11.13401 0.4418351 10.02245 15.38325
183.9663 107.2103 3156.287 0.3100755 -7.195838 -4.617958 4.657778 8.448763 4.785594 -0 10.63571 -0 -2.527705 -11.35428 -3.46695 0.1830084 -18.987 -4.013341 -0 44.13275 -0 -6.734921 -6.52064 18.77098 1.606444 -3.154179 8.268111 -0.7979257 15.40289 -4.066535 1.977866 18.62008 1.808477 -1.339162 -21.71794 5.917917 -4.992255 -33.08639 10.48217 89.85798 15.46577 -5.779767 -0 0 30.2372 -24.01999 15.91255 18.7711 1.130948 -19.50769 -6.470356 -96.00137 14.34274 40.47396 0 0 -11.13241 0.4409334 10.02137 15.38452
183.8146 106.5526 3161.898 0.006736971 -6.584848 -5.297168 4.628723 11.73347 4.342484 -0 10.05613 -0 -2.595845 -13.85537 -2.409143 1.619872 -23.08363 -3.016044 -0 34.42861 -0 -6.074565 -6.553188 19.25711 1.606138 -3.154338 8.268412 -0.797971 15.40199 -4.065949 1.977738 18.61955 1.808604 -1.339328 -21.71844 5.918043 -4.992214 -33.08748 10.48171 89.85618 15.46601 -5.777077 -0 0 30.23989 -24.02023 15.91244 18.7726 1.131131 -19.50639 -6.469362 -96.00242 14.34246 40.47621 0 0 -11.131 0.4401379 10.02033 15.3857
183.7934 105.5122 3167.696 -0.3442002 -5.779069 -5.97264 4.504674 14.33112 3.988879 -0 10.52653 -0 -2.388435 -15.80137 -1.507297 2.578851 -25.67778 -2.416727 -0 25.6665 -0 -5.492659 -6.462281 19.4279 1.605866 -3.154396 8.268615 -0.7980378 15.40121 -4.06543 1.977639 18.61922 1.808821 -1.339389 -21.71892 5.918224 -4.992222 -33.08815 10.48132 89.85486 15.46625 -5.775056 -0 0 30.24166 -24.02043 15.91208 18.77373 1.13131 -19.50534 -6.468548 -96.00325 14.34237 40.4778 0 0 -11.12989 0.4394983 10.01939 15.3867
183.8948 104.329 3173.825 -0.4837913 -4.994431 -6.623221 3.951665 16.49801 3.747963 -0 12.23553 -0 -1.934948 -16.44029 -0.7585389 2.604047 -26.99607 -2.517637 -0 19.53199 -0 -5.031864 -6.429227 19.43031 1.605643 -3.154348 8.268707 -0.7981225 15.4006 -4.065009 1.977577 18.61912 1.809116 -1.339341 -21.71935 5.91845 -4.992279 -33.08836 10.48101 89.8541 15.46647 -5.773826 -0 0 30.24238 -24.02057 15.9115 18.7744 1.131474 -19.50462 -6.467962 -96.00383 14.34248 40.47863 0 0 -11.12913 0.4390532 10.01861 15.38748
184.0943 103.2569 3180.383 -0.255954 -4.436587 -7.192867 2.851508 18.27295 3.636403 -0 15.50147 -0 -1.389352 -15.09918 -0.1993728 1.606966 -27.23918 -3.33541 -0 16.56901 -0 -4.605872 -6.599637 19.39261 1.605482 -3.154198 8.268681 -0.79822 15.4002 -4.064711 1.977554 18.61926 1.809473 -1.339185 -21.71972 5.918707 -4.992381 -33.08809 10.4808 89.85393 15.46668 -5.773458 -0 0 30.24203 -24.02064 15.91072 18.7746 1.131614 -19.50425 -6.467639 -96.00412 14.34278 40.47866 0 0 -11.12876 0.4388287 10.01805 15.38798
184.3569 102.5309 3187.372 0.293587 -4.249946 -7.584119 1.415305 19.29778 3.651719 -0 20.72771 -0 -0.9276528 -11.50122 0.06566724 -0.1155352 -26.34742 -4.609206 -0 16.26881 -0 -4.052762 -6.998711 19.35089 1.605393 -3.153955 8.268539 -0.7983245 15.40003 -4.064552 1.977572 18.61963 1.809871 -1.33893 -21.72 5.918982 -4.99252 -33.08737 10.48071 89.85437 15.46684 -5.773971 -0 0 30.24063 -24.02065 15.9098 18.7743 1.131724 -19.50427 -6.467596 -96.00411 14.34326 40.47788 0 0 -11.12881 0.4388378 10.01772 15.38818
184.6449 102.34 3194.672 0.9412035 -4.477661 -7.678267 0.09439144 18.93931 3.730361 -0 28.05021 -0 -0.6603956 -6.069461 -0.08064002 -2.045408 -24.08204 -5.945025 -0 17.52911 -0 -3.267132 -7.567431 19.26564 1.605378 -3.153634 8.26829 -0.7984299 15.40009 -4.06454 1.97763 18.6202 1.810287 -1.338591 -21.72017 5.919258 -4.992687 -33.08623 10.48073 89.85539 15.46696 -5.775332 -0 0 30.23825 -24.02059 15.90879 18.77353 1.131797 -19.50467 -6.467834 -96.00379 14.34388 40.47635 0 0 -11.12927 0.4390802 10.01765 15.38806
184.9308 102.7753 3202.035 1.410617 -5.048687 -7.3922 -0.6722151 16.64271 3.756251 -0 36.84958 -0 -0.6280771 0.0008944281 -0.6798053 -3.68547 -20.34148 -7.014774 -0 19.13317 -0 -2.29677 -8.25978 19.08958 1.60544 -3.153254 8.267947 -0.7985299 15.40038 -4.064676 1.977724 18.62095 1.810699 -1.338187 -21.72023 5.91952 -4.992873 -33.08474 10.48087 89.85692 15.46702 -5.777463 -0 0 30.23503 -24.02046 15.90774 18.77233 1.131829 -19.50543 -6.468341 -96.00318 14.34462 40.47414 0 0 -11.1301 0.4395427 10.01785 15.38763
185.2078 103.7638 3209.156 1.522401 -5.801848 -6.736109 -0.7267807 12.27606 3.648477 -0 45.51459 -0 -0.8396693 5.109985 -1.645481 -4.756915 -15.41677 -7.701164 -0 20.09026 -0 -1.326424 -9.103985 18.80236 1.605575 -3.152837 8.267529 -0.7986184 15.40089 -4.064953 1.977849 18.62183 1.811082 -1.337741 -21.72017 5.919752 -4.993065 -33.08298 10.48113 89.85889 15.46702 -5.780242 -0 0 30.23117 -24.02028 15.90672 18.77077 1.13182 -19.5065 -6.469087 -96.00233 14.34542 40.47138 0 0 -11.13127 0.4401992 10.0183 15.38691
185.4845 105.0474 3215.783 1.282134 -6.532024 -5.819917 -0.2665619 6.244639 3.400743 -0 51.81005 -0 -1.270899 7.976762 -2.784825 -5.240575 -9.949566 -8.077127 -0 19.84887 -0 -0.5758986 -10.19011 18.38392 1.605774 -3.152409 8.267063 -0.7986898 15.40159 -4.065355 1.977998 18.62278 1.811412 -1.337281 -21.72 5.919939 -4.993251 -33.08107 10.48147 89.86116 15.46697 -5.783501 -0 0 30.22689 -24.02006 15.90579 18.76895 1.131768 -19.50782 -6.470028 -96.00128 14.34624 40.46825 0 0 -11.13271 0.4410107 10.01899 15.38595
185.7631 106.2535 3221.837 0.8591139 -7.038489 -4.799332 0.3300656 -0.6727978 3.016106 -0 53.80366 -0 -1.810214 8.25733 -3.8898 -5.290569 -4.622499 -8.26716 -0 18.39373 -0 -0.2040238 -11.61153 17.78319 1.606027 -3.151998 8.266577 -0.798739 15.40243 -4.065858 1.978161 18.62376 1.811666 -1.336836 -21.71971 5.920068 -4.993421 -33.07913 10.4819 89.8636 15.46685 -5.787035 -0 0 30.22247 -24.01981 15.90502 18.76697 1.131678 -19.50932 -6.471107 -96.0001 14.34703 40.46494 0 0 -11.13431 0.4419269 10.01986 15.3848
186.0233 107.0353 3227.429 0.4781573 -7.174157 -3.808452 0.7417863 -7.624559 2.462961 -0 50.78926 -0 -2.250025 6.598502 -4.822935 -5.127876 0.1476617 -8.343673 -0 16.18705 -0 -0.2711157 -13.39292 16.94682 1.606317 -3.151631 8.266105 -0.7987623 15.40337 -4.066431 1.978328 18.62468 1.811825 -1.336437 -21.71934 5.92013 -4.993561 -33.07728 10.48237 89.86606 15.46669 -5.790617 -0 0 30.21819 -24.01954 15.90446 18.76497 1.131553 -19.51089 -6.472254 -95.99885 14.34773 40.46166 0 0 -11.13599 0.4428892 10.02087 15.38354
186.23 107.1927 3232.796 0.3018603 -6.892722 -2.927159 0.8379349 -13.92701 1.729682 -0 43.576 -0 -2.382567 4.152045 -5.533793 -4.95543 4.277922 -8.318423 -0 13.95785 -0 -0.7400285 -15.42784 15.88838 1.606628 -3.151333 8.265676 -0.7987579 15.40434 -4.067039 1.978487 18.62549 1.811877 -1.336111 -21.7189 5.920119 -4.993664 -33.07564 10.48286 89.86836 15.46648 -5.794016 -0 0 30.21434 -24.01927 15.90415 18.76308 1.1314 -19.51243 -6.473397 -95.99763 14.34829 40.45864 0 0 -11.13764 0.4438357 10.02194 15.38224
186.3527 106.7117 3238.198 0.3703139 -6.269492 -2.185632 0.6899326 -19.15364 0.9050272 -0 34.03246 -0 -2.114391 1.984488 -6.043058 -4.89528 7.871998 -8.179142 -0 12.44688 -0 -1.494988 -17.46142 14.71981 1.606939 -3.151122 8.265319 -0.798726 15.40528 -4.067643 1.97863 18.62614 1.811817 -1.335879 -21.71841 5.920034 -4.993723 -33.07433 10.48334 89.87037 15.46625 -5.797019 -0 0 30.21117 -24.01902 15.90411 18.7614 1.131228 -19.51385 -6.474465 -95.9965 14.34868 40.45605 0 0 -11.13915 0.4447065 10.02303 15.38099
186.3743 105.7308 3243.846 0.6100138 -5.476829 -1.581157 0.5099478 -23.09947 0.1938356 -0 24.30548 -0 -1.502858 0.7315075 -6.428665 -4.961221 11.03948 -7.91919 -0 12.23578 -0 -2.391467 -19.13909 13.60863 1.607233 -3.15101 8.265055 -0.7986688 15.40614 -4.068208 1.978747 18.6266 1.811649 -1.335755 -21.71791 5.919881 -4.993737 -33.07341 10.48377 89.87197 15.466 -5.799446 -0 0 30.20886 -24.0188 15.90434 18.76005 1.131048 -19.51506 -6.475393 -95.99554 14.34888 40.45406 0 0 -11.14043 0.4454489 10.02405 15.37987
186.2871 104.4812 3249.879 0.8831889 -4.724922 -1.095256 0.5578468 -25.68862 -0.1445181 -0 16.18418 -0 -0.7102938 0.530508 -6.795942 -5.073844 13.793 -7.552267 -0 13.69736 -0 -3.32973 -20.09437 12.69821 1.607492 -3.151001 8.264898 -0.7985908 15.40687 -4.0687 1.978832 18.62682 1.811386 -1.335744 -21.71743 5.919671 -4.993705 -33.07294 10.48414 89.87308 15.46576 -5.801166 -0 0 30.20752 -24.01862 15.90482 18.7591 1.13087 -19.51599 -6.476129 -95.99479 14.34888 40.45277 0 0 -11.14142 0.4460203 10.02494 15.37893
186.0858 103.2335 3256.36 1.045573 -4.195629 -0.7146813 1.041426 -26.88704 0.1054062 -0 10.78514 -0 0.07102907 1.106475 -7.226912 -5.104796 16.01586 -7.120477 -0 17.01119 -0 -4.297737 -20.0353 12.0562 1.607701 -3.151091 8.264854 -0.7984975 15.40742 -4.069091 1.97888 18.62683 1.811048 -1.335844 -21.717 5.91942 -4.993633 -33.07292 10.48442 89.87364 15.46553 -5.802096 -0 0 30.20722 -24.0185 15.90551 18.75859 1.130704 -19.51659 -6.476633 -95.9943 14.34868 40.45224 0 0 -11.14207 0.4463906 10.02566 15.37824
185.7686 102.2546 3263.273 0.9960788 -3.992421 -0.4541896 2.026843 -26.66622 1.016995 -0 8.475497 -0 0.6702815 1.917593 -7.732887 -4.9343 17.4612 -6.694412 -0 22.16945 -0 -5.334544 -18.82133 11.68916 1.607849 -3.151272 8.264923 -0.7983953 15.40776 -4.069359 1.978891 18.6266 1.810657 -1.336044 -21.71665 5.919144 -4.993526 -33.07335 10.4846 89.87363 15.46534 -5.802198 -0 0 30.20793 -24.01844 15.90636 18.75854 1.130561 -19.51684 -6.47688 -95.99409 14.34831 40.45249 0 0 -11.14234 0.446542 10.02616 15.37783
185.344 101.7644 3270.514 0.7137512 -4.120599 -0.3654749 3.382245 -25.03524 2.451579 -0 8.897763 -0 0.9541945 2.344342 -8.233975 -4.513171 17.77974 -6.355629 -0 28.93752 -0 -6.432445 -16.54068 11.60151 1.607927 -3.151532 8.265099 -0.7982906 15.40788 -4.069488 1.978863 18.62617 1.81024 -1.336331 -21.71638 5.91886 -4.99339 -33.0742 10.48467 89.87305 15.46519 -5.801478 -0 0 30.20961 -24.01844 15.90732 18.75895 1.13045 -19.51673 -6.476858 -95.99416 14.34779 40.45347 0 0 -11.14221 0.4464685 10.02642 15.37772
184.8372 101.885 3277.895 0.2771614 -4.508034 -0.5158849 4.79554 -22.11223 4.062105 -0 11.06749 -0 0.8414606 1.926035 -8.580166 -3.911416 16.60532 -6.159929 -0 36.78906 -0 -7.464703 -13.56727 11.83298 1.607929 -3.151855 8.26537 -0.7981896 15.40777 -4.069472 1.978798 18.62557 1.809822 -1.336687 -21.71623 5.918587 -4.993233 -33.0754 10.48462 89.87196 15.46509 -5.799978 -0 0 30.21214 -24.0185 15.90833 18.75979 1.130379 -19.51626 -6.476568 -95.99453 14.34715 40.45514 0 0 -11.14171 0.4461753 10.02642 15.37791
184.288 102.5981 3285.188 -0.1494312 -5.062014 -0.9412852 5.891401 -18.15527 5.413838 -0 13.63852 -0 0.3471284 0.5759211 -8.615979 -3.306294 13.70562 -6.103665 -0 44.87021 -0 -8.222956 -10.52048 12.43248 1.607855 -3.152225 8.265722 -0.7980976 15.40744 -4.069309 1.978699 18.62481 1.809428 -1.337091 -21.7162 5.918341 -4.993061 -33.07691 10.48445 89.87039 15.46505 -5.797776 -0 0 30.21539 -24.01862 15.90932 18.76103 1.130352 -19.51545 -6.476024 -95.99516 14.34643 40.4574 0 0 -11.14084 0.4456778 10.02616 15.3784
183.7372 103.7388 3292.189 -0.3831994 -5.717631 -1.605881 6.400704 -13.49097 6.187557 -0 15.38265 -0 -0.3796217 -1.391999 -8.254851 -2.869408 9.125918 -6.120983 -0 52.03424 -0 -8.555313 -8.059237 13.39935 1.607708 -3.152623 8.266135 -0.7980193 15.40689 -4.069006 1.978573 18.62395 1.809078 -1.337521 -21.7163 5.918133 -4.992882 -33.07863 10.48418 89.86842 15.46507 -5.794982 -0 0 30.21921 -24.01881 15.91026 18.76259 1.130372 -19.51435 -6.475253 -95.99603 14.34566 40.46015 0 0 -11.13964 0.4450021 10.02565 15.37917
